STARTFONT 2.1
COMMENT
COMMENT Converted from OpenType font "Font 90 Icons.ttf" by "otf2bdf 3.0".
COMMENT
FONT -FreeType-Font 90 Icons-Medium-R-Normal--15-110-100-100-P-60-ISO10646-1
SIZE 11 100 100
FONTBOUNDINGBOX 16 15 0 -3
STARTPROPERTIES 19
FOUNDRY "FreeType"
FAMILY_NAME "Font 90 Icons"
WEIGHT_NAME "Medium"
SLANT "R"
SETWIDTH_NAME "Normal"
ADD_STYLE_NAME ""
PIXEL_SIZE 15
POINT_SIZE 110
RESOLUTION_X 100
RESOLUTION_Y 100
SPACING "P"
AVERAGE_WIDTH 60
CHARSET_REGISTRY "ISO10646"
CHARSET_ENCODING "1"
FONT_ASCENT 12
FONT_DESCENT 3
COPYRIGHT "Typeface © (el-harrak.blogspot.com). <darrati10@gmail.com>. All Rights Reserved"
_OTF_FONTFILE "Font 90 Icons.ttf"
_OTF_PSNAME "Font 90 Icons"
ENDPROPERTIES
CHARS 242
STARTCHAR 0000
ENCODING 0
SWIDTH 0 0
DWIDTH 0 0
BBX 0 0 0 0
BITMAP
ENDCHAR
STARTCHAR 001D
ENCODING 29
SWIDTH 0 0
DWIDTH 0 0
BBX 0 0 0 0
BITMAP
ENDCHAR
STARTCHAR 0020
ENCODING 32
SWIDTH 261 0
DWIDTH 4 0
BBX 0 0 0 0
BITMAP
ENDCHAR
STARTCHAR 0021
ENCODING 33
SWIDTH 981 0
DWIDTH 15 0
BBX 15 14 0 -2
BITMAP
07E0
1FD0
3FC8
7CE4
7EE4
FFC2
FF82
FC02
F802
F004
7304
3108
3810
0FE0
ENDCHAR
STARTCHAR 0022
ENCODING 34
SWIDTH 981 0
DWIDTH 15 0
BBX 15 12 0 -1
BITMAP
0780
0440
7FFC
FFFE
FFFE
FFFE
FFFE
FFFE
FFFE
FFFE
FFFE
FFFC
ENDCHAR
STARTCHAR 0023
ENCODING 35
SWIDTH 981 0
DWIDTH 15 0
BBX 13 15 1 -3
BITMAP
BF00
BFF0
BFF0
FFF0
FFF8
FFF8
5FF8
5038
6000
6000
6000
6000
2000
2000
3000
ENDCHAR
STARTCHAR 0024
ENCODING 36
SWIDTH 981 0
DWIDTH 15 0
BBX 14 14 0 -2
BITMAP
3000
7800
FC00
FE00
7F00
3F80
1F00
0F00
0480
0040
0020
0010
0008
0004
ENDCHAR
STARTCHAR 0025
ENCODING 37
SWIDTH 981 0
DWIDTH 15 0
BBX 14 15 0 -3
BITMAP
0380
07C0
1FE0
7B3C
F13C
7978
678C
638C
7D78
793C
713C
5FFC
0FE0
0380
0300
ENDCHAR
STARTCHAR 0026
ENCODING 38
SWIDTH 981 0
DWIDTH 15 0
BBX 15 14 0 -2
BITMAP
07C0
1830
27C8
4FE8
57F4
BBB4
BD7A
BEFA
BFF4
9FF4
5FE4
2FC8
3110
0FE0
ENDCHAR
STARTCHAR 0027
ENCODING 39
SWIDTH 981 0
DWIDTH 15 0
BBX 14 15 0 -3
BITMAP
1F00
3FC0
71C0
6460
C460
DF60
C460
E460
70E0
3FF0
1FF8
007C
003C
001C
0008
ENDCHAR
STARTCHAR 0028
ENCODING 40
SWIDTH 981 0
DWIDTH 15 0
BBX 15 15 0 -3
BITMAP
1F00
3FC0
71E0
E060
C060
DF60
C060
E060
70E0
3FF0
1FF8
007C
003E
001C
0008
ENDCHAR
STARTCHAR 0029
ENCODING 41
SWIDTH 981 0
DWIDTH 15 0
BBX 15 11 0 -1
BITMAP
FFFC
C00E
A01A
9032
8862
84C2
8BA2
9012
A00A
C006
FFFC
ENDCHAR
STARTCHAR 002A
ENCODING 42
SWIDTH 981 0
DWIDTH 15 0
BBX 13 15 1 -3
BITMAP
0600
0600
0600
2640
3FC0
1F80
7FF0
BFF8
DFF8
EFF8
F7F8
E9F8
DFF8
BFF8
7FF0
ENDCHAR
STARTCHAR 002B
ENCODING 43
SWIDTH 981 0
DWIDTH 15 0
BBX 15 14 0 -2
BITMAP
FFFE
FFFE
CFE6
C7C6
E7D6
FFFE
FFFE
FFFE
FFFE
F7D6
C7C6
CFE6
FFF6
FFFE
ENDCHAR
STARTCHAR 002C
ENCODING 44
SWIDTH 981 0
DWIDTH 15 0
BBX 15 14 0 -2
BITMAP
0078
01FC
03EE
07EC
0FFC
1FFC
37FC
6BF8
F5F0
7AE0
3DC0
1F80
0F00
0600
ENDCHAR
STARTCHAR 002D
ENCODING 45
SWIDTH 981 0
DWIDTH 15 0
BBX 15 14 0 -2
BITMAP
07C0
1830
2018
504C
48C4
87C4
87C2
87C2
87C4
80C4
4064
2058
3010
0FE0
ENDCHAR
STARTCHAR 002E
ENCODING 46
SWIDTH 981 0
DWIDTH 15 0
BBX 13 15 1 -3
BITMAP
7FF0
4010
4010
4010
4010
4010
4010
3FE0
7FF0
7F10
7FF0
0200
0200
0F80
FFF8
ENDCHAR
STARTCHAR 002F
ENCODING 47
SWIDTH 981 0
DWIDTH 15 0
BBX 15 15 0 -3
BITMAP
2788
27C8
A7D4
B7D4
57D4
57D4
57D4
57D4
B7D4
A7D2
2788
4388
0380
0380
0300
ENDCHAR
STARTCHAR 0030
ENCODING 48
SWIDTH 981 0
DWIDTH 15 0
BBX 15 14 0 -2
BITMAP
07C0
1FF0
37F8
679C
438C
C304
C684
FCFE
FFFC
FC7C
787C
7838
3C70
0FE0
ENDCHAR
STARTCHAR 0031
ENCODING 49
SWIDTH 981 0
DWIDTH 15 0
BBX 14 15 0 -3
BITMAP
0380
0BA0
1BB0
3BB8
7398
638C
E38C
C38C
C00C
E00C
601C
7018
3878
1FF0
07C0
ENDCHAR
STARTCHAR 0032
ENCODING 50
SWIDTH 981 0
DWIDTH 15 0
BBX 14 15 0 -3
BITMAP
0380
0380
0300
631C
F13C
3978
0780
0380
1D70
793C
F11C
430C
0300
0380
0300
ENDCHAR
STARTCHAR 0033
ENCODING 51
SWIDTH 981 0
DWIDTH 15 0
BBX 15 14 0 -2
BITMAP
0100
0100
0300
0380
0780
FFFE
7FFC
3FF8
1FF0
0FE0
1FE0
1FE0
1C60
1010
ENDCHAR
STARTCHAR 0034
ENCODING 52
SWIDTH 981 0
DWIDTH 15 0
BBX 15 11 0 -1
BITMAP
7FFC
BFFE
DFFE
EFFE
F7FE
FBBE
FDDE
FFEE
FFF6
FFFA
0004
ENDCHAR
STARTCHAR 0035
ENCODING 53
SWIDTH 981 0
DWIDTH 15 0
BBX 14 11 0 -1
BITMAP
0370
05F0
0FB0
2FE8
DFF4
3FF0
3C70
3C70
3C70
3C70
3C70
ENDCHAR
STARTCHAR 0036
ENCODING 54
SWIDTH 981 0
DWIDTH 15 0
BBX 15 15 0 -3
BITMAP
3030
3030
3030
FC78
FCB4
FCFC
FCFC
FD7E
78F8
78FC
7830
7830
7830
7830
3830
ENDCHAR
STARTCHAR 0037
ENCODING 55
SWIDTH 981 0
DWIDTH 15 0
BBX 15 11 0 -1
BITMAP
1F00
31C0
71C0
FBE0
8E20
8E20
DF20
71E0
71C0
39EE
0E10
ENDCHAR
STARTCHAR 0038
ENCODING 56
SWIDTH 981 0
DWIDTH 15 0
BBX 11 15 2 -3
BITMAP
FFE0
8020
8020
8020
FFE0
9320
9320
FFE0
9320
9320
FFE0
9320
9320
FFE0
FFE0
ENDCHAR
STARTCHAR 0039
ENCODING 57
SWIDTH 981 0
DWIDTH 15 0
BBX 15 14 0 -2
BITMAP
8000
4000
2FFE
2FFC
17F8
17F8
17F8
1000
1000
1FFC
0000
0818
1C38
1C18
ENDCHAR
STARTCHAR 003A
ENCODING 58
SWIDTH 981 0
DWIDTH 15 0
BBX 15 14 0 -3
BITMAP
00F0
01F8
01E4
03E4
03FE
03FC
05FC
0EF8
1F80
3E00
7C00
F000
F000
E000
ENDCHAR
STARTCHAR 003B
ENCODING 59
SWIDTH 981 0
DWIDTH 15 0
BBX 15 15 0 -3
BITMAP
0100
0100
0100
0100
0100
0100
0100
FFFE
0100
0100
0100
0100
0100
0100
0100
ENDCHAR
STARTCHAR 003C
ENCODING 60
SWIDTH 981 0
DWIDTH 15 0
BBX 15 12 0 -1
BITMAP
0100
0300
0380
0680
0440
0C60
1820
1030
3010
2018
600C
C006
ENDCHAR
STARTCHAR 003D
ENCODING 61
SWIDTH 981 0
DWIDTH 15 0
BBX 15 14 0 -2
BITMAP
0FC0
1030
3008
4FC4
8C44
8C44
8CC2
8F02
8D82
8CC4
4C44
5E68
3010
0FE0
ENDCHAR
STARTCHAR 003E
ENCODING 62
SWIDTH 981 0
DWIDTH 15 0
BBX 15 14 0 -2
BITMAP
0FC0
1030
2388
4464
8824
9804
9002
9002
9002
9804
4C24
43C8
3010
0FE0
ENDCHAR
STARTCHAR 003F
ENCODING 63
SWIDTH 981 0
DWIDTH 15 0
BBX 15 14 0 -2
BITMAP
07C0
1FF0
3038
6018
400C
C004
C004
C006
C004
C00C
600C
3018
3870
0FE0
ENDCHAR
STARTCHAR 0040
ENCODING 64
SWIDTH 981 0
DWIDTH 15 0
BBX 15 14 0 -2
BITMAP
0100
0100
0380
0380
07C0
07C0
0FE0
0FE0
1FF0
1FF0
3FF8
3FF8
7FFC
FFFE
ENDCHAR
STARTCHAR 0041
ENCODING 65
SWIDTH 981 0
DWIDTH 15 0
BBX 15 14 0 -2
BITMAP
8400
C600
E700
F7C0
FFE0
FEF0
FF7C
FFBE
FFF8
FDE0
FBC0
F780
C600
8400
ENDCHAR
STARTCHAR 0042
ENCODING 66
SWIDTH 981 0
DWIDTH 15 0
BBX 13 15 1 -3
BITMAP
C078
E078
F878
FC78
FF78
FFF8
FFF8
FFF8
FFF8
FFF8
FE78
FC78
F078
C078
8078
ENDCHAR
STARTCHAR 0043
ENCODING 67
SWIDTH 981 0
DWIDTH 15 0
BBX 11 15 2 -3
BITMAP
F3E0
F3E0
F3E0
F3E0
F3E0
F3E0
F3E0
F3E0
F3E0
F3E0
F3E0
F3E0
F3E0
F3E0
F3E0
ENDCHAR
STARTCHAR 0044
ENCODING 68
SWIDTH 981 0
DWIDTH 15 0
BBX 13 15 1 -3
BITMAP
C000
E000
F800
FC00
FF00
FFC0
FFE0
FFF8
FFE0
FF80
FE00
FC00
F000
C000
8000
ENDCHAR
STARTCHAR 0045
ENCODING 69
SWIDTH 981 0
DWIDTH 15 0
BBX 15 14 0 -2
BITMAP
07C0
1FF0
3FF8
7FF8
7C7C
F83C
F03C
F01E
F03C
F83C
7FFC
3FF8
3FF0
0FE0
ENDCHAR
STARTCHAR 0046
ENCODING 70
SWIDTH 981 0
DWIDTH 15 0
BBX 15 14 0 -2
BITMAP
FFFE
FFFE
FFFE
FFFE
FFFE
FFFE
FFFE
FFFE
FFFE
FFFE
FFFE
FFFE
FFFE
FFFE
ENDCHAR
STARTCHAR 0047
ENCODING 71
SWIDTH 981 0
DWIDTH 15 0
BBX 13 15 1 -3
BITMAP
E018
E078
E0F8
E3F8
E7F8
FFF8
FFF8
FFF8
FFF8
EFF8
E7F8
E1F8
E078
E038
E008
ENDCHAR
STARTCHAR 0048
ENCODING 72
SWIDTH 981 0
DWIDTH 15 0
BBX 15 14 0 -2
BITMAP
0042
0086
038E
07BE
0F7E
3EFE
7FFE
FBFE
3DFE
1FFE
0FBE
039E
018E
0082
ENDCHAR
STARTCHAR 0049
ENCODING 73
SWIDTH 981 0
DWIDTH 15 0
BBX 15 14 0 -2
BITMAP
D000
D800
DA00
DB00
DBC0
DBF0
DBF8
DBFE
DBF0
DBE0
DB80
DB00
D800
D000
ENDCHAR
STARTCHAR 004A
ENCODING 74
SWIDTH 981 0
DWIDTH 15 0
BBX 15 14 0 -2
BITMAP
0100
0300
0380
07C0
0FE0
1FE0
1FF0
3FF8
7FFC
FFFE
0000
FFFE
FFFE
FFFE
ENDCHAR
STARTCHAR 004B
ENCODING 75
SWIDTH 981 0
DWIDTH 15 0
BBX 14 15 0 -3
BITMAP
0018
0018
0030
0030
7FE0
FFE0
3FE0
01F0
01F8
0338
061C
1E0C
0E0C
0204
0200
ENDCHAR
STARTCHAR 004C
ENCODING 76
SWIDTH 981 0
DWIDTH 15 0
BBX 12 15 1 -3
BITMAP
0040
0FE0
3FE0
63F0
81F0
01F0
0600
0000
1E00
FC00
7810
7FE0
3FC0
2000
2000
ENDCHAR
STARTCHAR 004D
ENCODING 77
SWIDTH 981 0
DWIDTH 15 0
BBX 15 12 0 -1
BITMAP
0F00
3FC0
70E0
6030
C030
C0FE
C078
C030
6010
6000
3F80
1FC0
ENDCHAR
STARTCHAR 004E
ENCODING 78
SWIDTH 981 0
DWIDTH 15 0
BBX 14 10 0 0
BITMAP
000C
001C
003C
6078
F0F0
79E0
3FC0
1F80
0F00
0600
ENDCHAR
STARTCHAR 004F
ENCODING 79
SWIDTH 981 0
DWIDTH 15 0
BBX 15 14 0 -2
BITMAP
F800
FE00
7F80
07C0
71E0
FC70
FE78
0F38
039C
03DC
71DC
F9CC
F8CC
70CE
ENDCHAR
STARTCHAR 0050
ENCODING 80
SWIDTH 981 0
DWIDTH 15 0
BBX 13 15 1 -3
BITMAP
1F80
3FC0
70E0
6070
6030
6030
FFF8
FFF8
FDF8
F9F8
FDF8
FDF8
FDF8
FFF8
FFF8
ENDCHAR
STARTCHAR 0051
ENCODING 81
SWIDTH 981 0
DWIDTH 15 0
BBX 15 14 0 -2
BITMAP
1FF0
1FF0
1FF0
1FF0
1FF0
0100
0100
1FF0
1010
FCFE
FCFE
FCFE
FCFE
FCFE
ENDCHAR
STARTCHAR 0052
ENCODING 82
SWIDTH 981 0
DWIDTH 15 0
BBX 15 9 0 0
BITMAP
0600
1F60
7FF8
E30C
C604
C006
E00C
7FF8
1FE0
ENDCHAR
STARTCHAR 0053
ENCODING 83
SWIDTH 981 0
DWIDTH 15 0
BBX 15 12 0 -1
BITMAP
0060
00F0
FDF8
FFFC
FF7C
DBFE
FFFC
FFFC
BFFC
BFFC
FFF8
7FF8
ENDCHAR
STARTCHAR 0054
ENCODING 84
SWIDTH 981 0
DWIDTH 15 0
BBX 14 14 0 -2
BITMAP
07C0
1FF0
3C78
7818
6C0C
E60C
C30C
C18C
C0CC
E06C
603C
3838
3FF0
0FE0
ENDCHAR
STARTCHAR 0055
ENCODING 85
SWIDTH 981 0
DWIDTH 15 0
BBX 15 13 0 -2
BITMAP
0100
0300
0700
0F00
FF00
FF7C
FF7E
FF00
FF00
0F00
0700
0300
0100
ENDCHAR
STARTCHAR 0056
ENCODING 86
SWIDTH 981 0
DWIDTH 15 0
BBX 15 13 0 -2
BITMAP
0100
0300
0700
0F00
FF18
FF7E
FF7E
FF18
FF18
0700
0700
0300
0100
ENDCHAR
STARTCHAR 0057
ENCODING 87
SWIDTH 981 0
DWIDTH 15 0
BBX 15 14 0 -2
BITMAP
3838
7CFC
FEFC
FFFE
FFFC
7FFC
3FF8
3FF0
1FE0
0FE0
07C0
0380
0100
0100
ENDCHAR
STARTCHAR 0058
ENCODING 88
SWIDTH 981 0
DWIDTH 15 0
BBX 12 15 1 -3
BITMAP
1800
1800
1800
1800
1A00
1AD0
DED0
DFF0
DFF0
FFF0
FFF0
7FF0
3FF0
3FF0
1FF0
ENDCHAR
STARTCHAR 0059
ENCODING 89
SWIDTH 981 0
DWIDTH 15 0
BBX 11 15 2 -3
BITMAP
0400
3500
3500
3560
3560
3560
3560
BFE0
BFE0
BFE0
FFE0
FFE0
7FE0
3FE0
3FC0
ENDCHAR
STARTCHAR 005A
ENCODING 90
SWIDTH 981 0
DWIDTH 15 0
BBX 15 15 0 -3
BITMAP
0088
0188
03AC
07A4
0FB4
FF94
FF96
FF96
FF94
FFB4
0FB4
07A4
0388
0188
0080
ENDCHAR
STARTCHAR 005B
ENCODING 91
SWIDTH 981 0
DWIDTH 15 0
BBX 14 14 0 -2
BITMAP
8000
E000
F800
FE00
FF80
FFE0
FFF8
FFFC
FFF0
FFC0
FF00
FC00
F000
C000
ENDCHAR
STARTCHAR 005C
ENCODING 92
SWIDTH 981 0
DWIDTH 15 0
BBX 15 14 0 -2
BITMAP
FFFE
7FFC
7FF8
3FF8
3FF0
1FF0
1FE0
0FE0
0FC0
07C0
0780
0380
0300
0100
ENDCHAR
STARTCHAR 005D
ENCODING 93
SWIDTH 981 0
DWIDTH 15 0
BBX 15 14 0 -2
BITMAP
0002
000E
003E
00FE
03FE
0FFE
3FFE
FFFE
1FFE
07FE
01FE
007E
001E
0006
ENDCHAR
STARTCHAR 005E
ENCODING 94
SWIDTH 981 0
DWIDTH 15 0
BBX 15 5 0 2
BITMAP
2008
4004
FFFE
4008
2008
ENDCHAR
STARTCHAR 005F
ENCODING 95
SWIDTH 981 0
DWIDTH 15 0
BBX 5 15 5 -3
BITMAP
60
F8
20
20
20
20
20
20
20
20
20
20
A8
70
20
ENDCHAR
STARTCHAR 0060
ENCODING 96
SWIDTH 981 0
DWIDTH 15 0
BBX 5 15 5 -3
BITMAP
20
20
20
20
20
20
20
20
20
20
20
20
A8
70
20
ENDCHAR
STARTCHAR 0061
ENCODING 97
SWIDTH 981 0
DWIDTH 15 0
BBX 15 8 0 1
BITMAP
0008
0F98
3FF8
3FF8
60FC
80FC
01FC
03FE
ENDCHAR
STARTCHAR 0062
ENCODING 98
SWIDTH 981 0
DWIDTH 15 0
BBX 14 8 0 1
BITMAP
2000
23E0
3FF0
7FF8
7E0C
7C04
7E00
FF80
ENDCHAR
STARTCHAR 0063
ENCODING 99
SWIDTH 981 0
DWIDTH 15 0
BBX 14 15 0 -3
BITMAP
0380
0380
0380
0380
0380
0380
0380
E39C
FBFC
7FFC
3FF8
1FF0
0FE0
07C0
0380
ENDCHAR
STARTCHAR 0064
ENCODING 100
SWIDTH 981 0
DWIDTH 15 0
BBX 14 14 0 -2
BITMAP
0018
403C
E07C
F0FC
F1F8
F3F0
FFE0
FFC0
FF80
FF00
FFC0
FFF8
FFF8
7FF8
ENDCHAR
STARTCHAR 0065
ENCODING 101
SWIDTH 981 0
DWIDTH 15 0
BBX 14 14 0 -2
BITMAP
3000
7808
FC0C
7E1C
3F1C
1FBC
0FFC
07FC
03FC
01FC
0FFC
3FFC
7FFC
3FFC
ENDCHAR
STARTCHAR 0066
ENCODING 102
SWIDTH 981 0
DWIDTH 15 0
BBX 15 13 0 -2
BITMAP
0700
0F00
1E00
3E00
7C00
FFFC
FFFE
7FFC
3E00
1E00
0F00
0700
0300
ENDCHAR
STARTCHAR 0067
ENCODING 103
SWIDTH 981 0
DWIDTH 15 0
BBX 15 13 0 -1
BITMAP
0180
01C0
01E0
00F0
00F8
FFFC
FFFE
FFFC
00F8
00F0
01E0
01C0
0180
ENDCHAR
STARTCHAR 0068
ENCODING 104
SWIDTH 981 0
DWIDTH 15 0
BBX 14 15 0 -3
BITMAP
0380
07C0
0FE0
1FF0
3FF8
7FFC
FBBC
E38C
0380
0380
0380
0380
0380
0380
0380
ENDCHAR
STARTCHAR 0069
ENCODING 105
SWIDTH 981 0
DWIDTH 15 0
BBX 15 15 0 -3
BITMAP
7FF8
FFF8
FFF8
FFE0
FF00
FF00
FF80
FFC0
F3E0
F1F0
F0F8
E07C
603E
001C
0008
ENDCHAR
STARTCHAR 006A
ENCODING 106
SWIDTH 981 0
DWIDTH 15 0
BBX 15 15 0 -3
BITMAP
3FFC
7FFE
3FFE
0FFE
01FE
03FE
07FE
0FFE
1FBE
3F1E
7E1E
FC1E
F80C
7000
2000
ENDCHAR
STARTCHAR 006B
ENCODING 107
SWIDTH 981 0
DWIDTH 15 0
BBX 15 13 0 -2
BITMAP
0080
00C0
00E0
0FF0
3FF8
7FFC
7FFE
F1F8
C1E0
C180
8100
8000
8000
ENDCHAR
STARTCHAR 006C
ENCODING 108
SWIDTH 1047 0
DWIDTH 16 0
BBX 16 14 0 -2
BITMAP
0100
0200
0600
0E00
1FF0
3FFC
7FFE
FFFE
3F0F
0F07
0703
0181
0001
0001
ENDCHAR
STARTCHAR 006D
ENCODING 109
SWIDTH 981 0
DWIDTH 15 0
BBX 13 15 1 -3
BITMAP
0F80
0F80
0F80
0F80
0F80
0F80
0F80
0F80
FFF8
7FE0
3FC0
1FC0
0F80
0700
0200
ENDCHAR
STARTCHAR 006E
ENCODING 110
SWIDTH 981 0
DWIDTH 15 0
BBX 15 12 0 -1
BITMAP
0200
0600
0E00
1E00
3FFE
7FFE
FFFE
7FFE
1FFE
0E00
0600
0200
ENDCHAR
STARTCHAR 006F
ENCODING 111
SWIDTH 981 0
DWIDTH 15 0
BBX 15 12 0 -1
BITMAP
0080
0080
00C0
00F0
FFF8
FFFC
FFFE
FFF8
FFF0
00E0
00C0
0080
ENDCHAR
STARTCHAR 0070
ENCODING 112
SWIDTH 981 0
DWIDTH 15 0
BBX 13 15 1 -3
BITMAP
0600
0700
0F80
1FC0
3FE0
7FF0
8F88
0F80
0F80
0F80
0F80
0F80
0F80
0F80
0F80
ENDCHAR
STARTCHAR 0071
ENCODING 113
SWIDTH 981 0
DWIDTH 15 0
BBX 13 15 1 -3
BITMAP
0080
00C0
01C0
03E0
C3F0
C7F0
C7F8
C1C0
C1C0
C1C0
C1C0
E1C0
7F80
7F00
1E00
ENDCHAR
STARTCHAR 0072
ENCODING 114
SWIDTH 981 0
DWIDTH 15 0
BBX 15 12 0 -1
BITMAP
0200
0E00
1E00
FFF0
7FF8
1E1C
060C
020E
000C
001C
0FFC
0FF8
ENDCHAR
STARTCHAR 0073
ENCODING 115
SWIDTH 981 0
DWIDTH 15 0
BBX 15 11 0 -1
BITMAP
1FE0
3FF8
7FFC
FFFC
FFFE
FFFC
7FFC
3FF8
1FE0
0600
0C00
ENDCHAR
STARTCHAR 0074
ENCODING 116
SWIDTH 981 0
DWIDTH 15 0
BBX 15 12 0 -1
BITMAP
FFFC
FFFE
FFFE
FFFE
FFFE
FFFE
FFFE
FFFE
FFFE
7FFC
0200
0400
ENDCHAR
STARTCHAR 0075
ENCODING 117
SWIDTH 981 0
DWIDTH 15 0
BBX 15 11 0 -1
BITMAP
1FF0
3FF8
7FFC
FFFC
FFFE
FFFC
7FFC
3FF8
0FE0
0080
0060
ENDCHAR
STARTCHAR 0076
ENCODING 118
SWIDTH 981 0
DWIDTH 15 0
BBX 15 12 0 -1
BITMAP
FFFC
FFFE
FFFE
FFFE
FFFE
FFFE
FFFE
FFFE
FFFE
7FFC
0180
00C0
ENDCHAR
STARTCHAR 0077
ENCODING 119
SWIDTH 981 0
DWIDTH 15 0
BBX 15 14 0 -2
BITMAP
0300
0380
3FB8
3FF8
1FF0
3C70
F83C
F83E
787C
1EF0
3FF8
3FB8
3390
0380
ENDCHAR
STARTCHAR 0078
ENCODING 120
SWIDTH 981 0
DWIDTH 15 0
BBX 15 12 0 -1
BITMAP
5000
7C00
C800
4CD8
FBF0
2FF4
031E
0718
079C
01FC
01E0
0130
ENDCHAR
STARTCHAR 0079
ENCODING 121
SWIDTH 981 0
DWIDTH 15 0
BBX 15 13 0 -2
BITMAP
0F1C
1CB0
3C3C
7E78
E7F0
21C8
03C0
07E0
0E70
3C38
781E
700C
0008
ENDCHAR
STARTCHAR 007A
ENCODING 122
SWIDTH 981 0
DWIDTH 15 0
BBX 15 14 0 -2
BITMAP
0080
0080
0100
0300
0300
0302
333C
7BF8
CF80
FE00
2F00
0D00
0D00
0F00
ENDCHAR
STARTCHAR 007B
ENCODING 123
SWIDTH 981 0
DWIDTH 15 0
BBX 15 14 0 -2
BITMAP
0030
0030
0038
000C
0004
0004
0006
8004
C004
4004
600C
3018
1C70
07C0
ENDCHAR
STARTCHAR 007C
ENCODING 124
SWIDTH 981 0
DWIDTH 15 0
BBX 15 14 0 -2
BITMAP
3800
3800
2800
4000
C000
C000
8000
8006
C004
4004
600C
3018
1C70
07C0
ENDCHAR
STARTCHAR 007D
ENCODING 125
SWIDTH 458 0
DWIDTH 7 0
BBX 0 0 0 0
BITMAP
ENDCHAR
STARTCHAR 007E
ENCODING 126
SWIDTH 458 0
DWIDTH 7 0
BBX 0 0 0 0
BITMAP
ENDCHAR
STARTCHAR 00A0
ENCODING 160
SWIDTH 261 0
DWIDTH 4 0
BBX 0 0 0 0
BITMAP
ENDCHAR
STARTCHAR 00A1
ENCODING 161
SWIDTH 327 0
DWIDTH 5 0
BBX 0 0 0 0
BITMAP
ENDCHAR
STARTCHAR 00A2
ENCODING 162
SWIDTH 523 0
DWIDTH 8 0
BBX 0 0 0 0
BITMAP
ENDCHAR
STARTCHAR 00A3
ENCODING 163
SWIDTH 458 0
DWIDTH 7 0
BBX 0 0 0 0
BITMAP
ENDCHAR
STARTCHAR 00A4
ENCODING 164
SWIDTH 458 0
DWIDTH 7 0
BBX 0 0 0 0
BITMAP
ENDCHAR
STARTCHAR 00A5
ENCODING 165
SWIDTH 589 0
DWIDTH 9 0
BBX 0 0 0 0
BITMAP
ENDCHAR
STARTCHAR 00A6
ENCODING 166
SWIDTH 458 0
DWIDTH 7 0
BBX 0 0 0 0
BITMAP
ENDCHAR
STARTCHAR 00A7
ENCODING 167
SWIDTH 458 0
DWIDTH 7 0
BBX 0 0 0 0
BITMAP
ENDCHAR
STARTCHAR 00A8
ENCODING 168
SWIDTH 523 0
DWIDTH 8 0
BBX 0 0 0 0
BITMAP
ENDCHAR
STARTCHAR 00A9
ENCODING 169
SWIDTH 785 0
DWIDTH 12 0
BBX 0 0 0 0
BITMAP
ENDCHAR
STARTCHAR 00AA
ENCODING 170
SWIDTH 327 0
DWIDTH 5 0
BBX 0 0 0 0
BITMAP
ENDCHAR
STARTCHAR 00AB
ENCODING 171
SWIDTH 458 0
DWIDTH 7 0
BBX 0 0 0 0
BITMAP
ENDCHAR
STARTCHAR 00AC
ENCODING 172
SWIDTH 458 0
DWIDTH 7 0
BBX 0 0 0 0
BITMAP
ENDCHAR
STARTCHAR 00AD
ENCODING 173
SWIDTH 981 0
DWIDTH 15 0
BBX 15 14 0 -2
BITMAP
07C0
1830
2018
504C
48C4
87C4
87C2
87C2
87C4
80C4
4064
2058
3010
0FE0
ENDCHAR
STARTCHAR 00AE
ENCODING 174
SWIDTH 785 0
DWIDTH 12 0
BBX 0 0 0 0
BITMAP
ENDCHAR
STARTCHAR 00AF
ENCODING 175
SWIDTH 327 0
DWIDTH 5 0
BBX 0 0 0 0
BITMAP
ENDCHAR
STARTCHAR 00B0
ENCODING 176
SWIDTH 327 0
DWIDTH 5 0
BBX 0 0 0 0
BITMAP
ENDCHAR
STARTCHAR 00B1
ENCODING 177
SWIDTH 458 0
DWIDTH 7 0
BBX 0 0 0 0
BITMAP
ENDCHAR
STARTCHAR 00B2
ENCODING 178
SWIDTH 458 0
DWIDTH 7 0
BBX 0 0 0 0
BITMAP
ENDCHAR
STARTCHAR 00B3
ENCODING 179
SWIDTH 458 0
DWIDTH 7 0
BBX 0 0 0 0
BITMAP
ENDCHAR
STARTCHAR 00B4
ENCODING 180
SWIDTH 523 0
DWIDTH 8 0
BBX 0 0 0 0
BITMAP
ENDCHAR
STARTCHAR 00B5
ENCODING 181
SWIDTH 589 0
DWIDTH 9 0
BBX 0 0 0 0
BITMAP
ENDCHAR
STARTCHAR 00B6
ENCODING 182
SWIDTH 523 0
DWIDTH 8 0
BBX 0 0 0 0
BITMAP
ENDCHAR
STARTCHAR 00B7
ENCODING 183
SWIDTH 261 0
DWIDTH 4 0
BBX 0 0 0 0
BITMAP
ENDCHAR
STARTCHAR 00B8
ENCODING 184
SWIDTH 523 0
DWIDTH 8 0
BBX 0 0 0 0
BITMAP
ENDCHAR
STARTCHAR 00B9
ENCODING 185
SWIDTH 458 0
DWIDTH 7 0
BBX 0 0 0 0
BITMAP
ENDCHAR
STARTCHAR 00BA
ENCODING 186
SWIDTH 327 0
DWIDTH 5 0
BBX 0 0 0 0
BITMAP
ENDCHAR
STARTCHAR 00BB
ENCODING 187
SWIDTH 458 0
DWIDTH 7 0
BBX 0 0 0 0
BITMAP
ENDCHAR
STARTCHAR 00BC
ENCODING 188
SWIDTH 850 0
DWIDTH 13 0
BBX 0 0 0 0
BITMAP
ENDCHAR
STARTCHAR 00BD
ENCODING 189
SWIDTH 916 0
DWIDTH 14 0
BBX 0 0 0 0
BITMAP
ENDCHAR
STARTCHAR 00BE
ENCODING 190
SWIDTH 850 0
DWIDTH 13 0
BBX 0 0 0 0
BITMAP
ENDCHAR
STARTCHAR 00BF
ENCODING 191
SWIDTH 327 0
DWIDTH 5 0
BBX 0 0 0 0
BITMAP
ENDCHAR
STARTCHAR 00C0
ENCODING 192
SWIDTH 720 0
DWIDTH 11 0
BBX 0 0 0 0
BITMAP
ENDCHAR
STARTCHAR 00C1
ENCODING 193
SWIDTH 720 0
DWIDTH 11 0
BBX 0 0 0 0
BITMAP
ENDCHAR
STARTCHAR 00C2
ENCODING 194
SWIDTH 720 0
DWIDTH 11 0
BBX 0 0 0 0
BITMAP
ENDCHAR
STARTCHAR 00C3
ENCODING 195
SWIDTH 720 0
DWIDTH 11 0
BBX 0 0 0 0
BITMAP
ENDCHAR
STARTCHAR 00C4
ENCODING 196
SWIDTH 720 0
DWIDTH 11 0
BBX 0 0 0 0
BITMAP
ENDCHAR
STARTCHAR 00C5
ENCODING 197
SWIDTH 720 0
DWIDTH 11 0
BBX 0 0 0 0
BITMAP
ENDCHAR
STARTCHAR 00C6
ENCODING 198
SWIDTH 1047 0
DWIDTH 16 0
BBX 0 0 0 0
BITMAP
ENDCHAR
STARTCHAR 00C7
ENCODING 199
SWIDTH 654 0
DWIDTH 10 0
BBX 0 0 0 0
BITMAP
ENDCHAR
STARTCHAR 00C8
ENCODING 200
SWIDTH 523 0
DWIDTH 8 0
BBX 0 0 0 0
BITMAP
ENDCHAR
STARTCHAR 00C9
ENCODING 201
SWIDTH 523 0
DWIDTH 8 0
BBX 0 0 0 0
BITMAP
ENDCHAR
STARTCHAR 00CA
ENCODING 202
SWIDTH 523 0
DWIDTH 8 0
BBX 0 0 0 0
BITMAP
ENDCHAR
STARTCHAR 00CB
ENCODING 203
SWIDTH 523 0
DWIDTH 8 0
BBX 0 0 0 0
BITMAP
ENDCHAR
STARTCHAR 00CC
ENCODING 204
SWIDTH 327 0
DWIDTH 5 0
BBX 0 0 0 0
BITMAP
ENDCHAR
STARTCHAR 00CD
ENCODING 205
SWIDTH 327 0
DWIDTH 5 0
BBX 0 0 0 0
BITMAP
ENDCHAR
STARTCHAR 00CE
ENCODING 206
SWIDTH 327 0
DWIDTH 5 0
BBX 0 0 0 0
BITMAP
ENDCHAR
STARTCHAR 00CF
ENCODING 207
SWIDTH 327 0
DWIDTH 5 0
BBX 0 0 0 0
BITMAP
ENDCHAR
STARTCHAR 00D0
ENCODING 208
SWIDTH 720 0
DWIDTH 11 0
BBX 0 0 0 0
BITMAP
ENDCHAR
STARTCHAR 00D1
ENCODING 209
SWIDTH 720 0
DWIDTH 11 0
BBX 0 0 0 0
BITMAP
ENDCHAR
STARTCHAR 00D2
ENCODING 210
SWIDTH 785 0
DWIDTH 12 0
BBX 0 0 0 0
BITMAP
ENDCHAR
STARTCHAR 00D3
ENCODING 211
SWIDTH 785 0
DWIDTH 12 0
BBX 0 0 0 0
BITMAP
ENDCHAR
STARTCHAR 00D4
ENCODING 212
SWIDTH 785 0
DWIDTH 12 0
BBX 0 0 0 0
BITMAP
ENDCHAR
STARTCHAR 00D5
ENCODING 213
SWIDTH 785 0
DWIDTH 12 0
BBX 0 0 0 0
BITMAP
ENDCHAR
STARTCHAR 00D6
ENCODING 214
SWIDTH 785 0
DWIDTH 12 0
BBX 0 0 0 0
BITMAP
ENDCHAR
STARTCHAR 00D7
ENCODING 215
SWIDTH 458 0
DWIDTH 7 0
BBX 0 0 0 0
BITMAP
ENDCHAR
STARTCHAR 00D8
ENCODING 216
SWIDTH 785 0
DWIDTH 12 0
BBX 0 0 0 0
BITMAP
ENDCHAR
STARTCHAR 00D9
ENCODING 217
SWIDTH 720 0
DWIDTH 11 0
BBX 0 0 0 0
BITMAP
ENDCHAR
STARTCHAR 00DA
ENCODING 218
SWIDTH 720 0
DWIDTH 11 0
BBX 0 0 0 0
BITMAP
ENDCHAR
STARTCHAR 00DB
ENCODING 219
SWIDTH 720 0
DWIDTH 11 0
BBX 0 0 0 0
BITMAP
ENDCHAR
STARTCHAR 00DC
ENCODING 220
SWIDTH 720 0
DWIDTH 11 0
BBX 0 0 0 0
BITMAP
ENDCHAR
STARTCHAR 00DD
ENCODING 221
SWIDTH 589 0
DWIDTH 9 0
BBX 0 0 0 0
BITMAP
ENDCHAR
STARTCHAR 00DE
ENCODING 222
SWIDTH 523 0
DWIDTH 8 0
BBX 0 0 0 0
BITMAP
ENDCHAR
STARTCHAR 00DF
ENCODING 223
SWIDTH 589 0
DWIDTH 9 0
BBX 0 0 0 0
BITMAP
ENDCHAR
STARTCHAR 00E0
ENCODING 224
SWIDTH 458 0
DWIDTH 7 0
BBX 0 0 0 0
BITMAP
ENDCHAR
STARTCHAR 00E1
ENCODING 225
SWIDTH 458 0
DWIDTH 7 0
BBX 0 0 0 0
BITMAP
ENDCHAR
STARTCHAR 00E2
ENCODING 226
SWIDTH 458 0
DWIDTH 7 0
BBX 0 0 0 0
BITMAP
ENDCHAR
STARTCHAR 00E3
ENCODING 227
SWIDTH 458 0
DWIDTH 7 0
BBX 0 0 0 0
BITMAP
ENDCHAR
STARTCHAR 00E4
ENCODING 228
SWIDTH 458 0
DWIDTH 7 0
BBX 0 0 0 0
BITMAP
ENDCHAR
STARTCHAR 00E5
ENCODING 229
SWIDTH 458 0
DWIDTH 7 0
BBX 0 0 0 0
BITMAP
ENDCHAR
STARTCHAR 00E6
ENCODING 230
SWIDTH 720 0
DWIDTH 11 0
BBX 0 0 0 0
BITMAP
ENDCHAR
STARTCHAR 00E7
ENCODING 231
SWIDTH 458 0
DWIDTH 7 0
BBX 0 0 0 0
BITMAP
ENDCHAR
STARTCHAR 00E8
ENCODING 232
SWIDTH 458 0
DWIDTH 7 0
BBX 0 0 0 0
BITMAP
ENDCHAR
STARTCHAR 00E9
ENCODING 233
SWIDTH 458 0
DWIDTH 7 0
BBX 0 0 0 0
BITMAP
ENDCHAR
STARTCHAR 00EA
ENCODING 234
SWIDTH 458 0
DWIDTH 7 0
BBX 0 0 0 0
BITMAP
ENDCHAR
STARTCHAR 00EB
ENCODING 235
SWIDTH 458 0
DWIDTH 7 0
BBX 0 0 0 0
BITMAP
ENDCHAR
STARTCHAR 00EC
ENCODING 236
SWIDTH 261 0
DWIDTH 4 0
BBX 0 0 0 0
BITMAP
ENDCHAR
STARTCHAR 00ED
ENCODING 237
SWIDTH 261 0
DWIDTH 4 0
BBX 0 0 0 0
BITMAP
ENDCHAR
STARTCHAR 00EE
ENCODING 238
SWIDTH 261 0
DWIDTH 4 0
BBX 0 0 0 0
BITMAP
ENDCHAR
STARTCHAR 00EF
ENCODING 239
SWIDTH 261 0
DWIDTH 4 0
BBX 0 0 0 0
BITMAP
ENDCHAR
STARTCHAR 00F0
ENCODING 240
SWIDTH 523 0
DWIDTH 8 0
BBX 0 0 0 0
BITMAP
ENDCHAR
STARTCHAR 00F1
ENCODING 241
SWIDTH 523 0
DWIDTH 8 0
BBX 0 0 0 0
BITMAP
ENDCHAR
STARTCHAR 00F2
ENCODING 242
SWIDTH 458 0
DWIDTH 7 0
BBX 0 0 0 0
BITMAP
ENDCHAR
STARTCHAR 00F3
ENCODING 243
SWIDTH 458 0
DWIDTH 7 0
BBX 0 0 0 0
BITMAP
ENDCHAR
STARTCHAR 00F4
ENCODING 244
SWIDTH 458 0
DWIDTH 7 0
BBX 0 0 0 0
BITMAP
ENDCHAR
STARTCHAR 00F5
ENCODING 245
SWIDTH 458 0
DWIDTH 7 0
BBX 0 0 0 0
BITMAP
ENDCHAR
STARTCHAR 00F6
ENCODING 246
SWIDTH 458 0
DWIDTH 7 0
BBX 0 0 0 0
BITMAP
ENDCHAR
STARTCHAR 00F7
ENCODING 247
SWIDTH 458 0
DWIDTH 7 0
BBX 0 0 0 0
BITMAP
ENDCHAR
STARTCHAR 00F8
ENCODING 248
SWIDTH 458 0
DWIDTH 7 0
BBX 0 0 0 0
BITMAP
ENDCHAR
STARTCHAR 00F9
ENCODING 249
SWIDTH 523 0
DWIDTH 8 0
BBX 0 0 0 0
BITMAP
ENDCHAR
STARTCHAR 00FA
ENCODING 250
SWIDTH 523 0
DWIDTH 8 0
BBX 0 0 0 0
BITMAP
ENDCHAR
STARTCHAR 00FB
ENCODING 251
SWIDTH 523 0
DWIDTH 8 0
BBX 0 0 0 0
BITMAP
ENDCHAR
STARTCHAR 00FC
ENCODING 252
SWIDTH 523 0
DWIDTH 8 0
BBX 0 0 0 0
BITMAP
ENDCHAR
STARTCHAR 00FD
ENCODING 253
SWIDTH 392 0
DWIDTH 6 0
BBX 0 0 0 0
BITMAP
ENDCHAR
STARTCHAR 00FE
ENCODING 254
SWIDTH 458 0
DWIDTH 7 0
BBX 0 0 0 0
BITMAP
ENDCHAR
STARTCHAR 00FF
ENCODING 255
SWIDTH 392 0
DWIDTH 6 0
BBX 0 0 0 0
BITMAP
ENDCHAR
STARTCHAR 0131
ENCODING 305
SWIDTH 261 0
DWIDTH 4 0
BBX 0 0 0 0
BITMAP
ENDCHAR
STARTCHAR 02C6
ENCODING 710
SWIDTH 523 0
DWIDTH 8 0
BBX 0 0 0 0
BITMAP
ENDCHAR
STARTCHAR 02C7
ENCODING 711
SWIDTH 523 0
DWIDTH 8 0
BBX 0 0 0 0
BITMAP
ENDCHAR
STARTCHAR 02C9
ENCODING 713
SWIDTH 523 0
DWIDTH 8 0
BBX 0 0 0 0
BITMAP
ENDCHAR
STARTCHAR 02D8
ENCODING 728
SWIDTH 523 0
DWIDTH 8 0
BBX 0 0 0 0
BITMAP
ENDCHAR
STARTCHAR 02D9
ENCODING 729
SWIDTH 523 0
DWIDTH 8 0
BBX 0 0 0 0
BITMAP
ENDCHAR
STARTCHAR 02DA
ENCODING 730
SWIDTH 523 0
DWIDTH 8 0
BBX 0 0 0 0
BITMAP
ENDCHAR
STARTCHAR 02DB
ENCODING 731
SWIDTH 523 0
DWIDTH 8 0
BBX 0 0 0 0
BITMAP
ENDCHAR
STARTCHAR 02DC
ENCODING 732
SWIDTH 523 0
DWIDTH 8 0
BBX 0 0 0 0
BITMAP
ENDCHAR
STARTCHAR 02DD
ENCODING 733
SWIDTH 523 0
DWIDTH 8 0
BBX 0 0 0 0
BITMAP
ENDCHAR
STARTCHAR 037E
ENCODING 894
SWIDTH 981 0
DWIDTH 15 0
BBX 15 15 0 -3
BITMAP
0100
0100
0100
0100
0100
0100
0100
FFFE
0100
0100
0100
0100
0100
0100
0100
ENDCHAR
STARTCHAR 2013
ENCODING 8211
SWIDTH 523 0
DWIDTH 8 0
BBX 0 0 0 0
BITMAP
ENDCHAR
STARTCHAR 2014
ENCODING 8212
SWIDTH 981 0
DWIDTH 15 0
BBX 0 0 0 0
BITMAP
ENDCHAR
STARTCHAR 2018
ENCODING 8216
SWIDTH 261 0
DWIDTH 4 0
BBX 0 0 0 0
BITMAP
ENDCHAR
STARTCHAR 2019
ENCODING 8217
SWIDTH 261 0
DWIDTH 4 0
BBX 0 0 0 0
BITMAP
ENDCHAR
STARTCHAR 201A
ENCODING 8218
SWIDTH 261 0
DWIDTH 4 0
BBX 0 0 0 0
BITMAP
ENDCHAR
STARTCHAR 201C
ENCODING 8220
SWIDTH 458 0
DWIDTH 7 0
BBX 0 0 0 0
BITMAP
ENDCHAR
STARTCHAR 201D
ENCODING 8221
SWIDTH 458 0
DWIDTH 7 0
BBX 0 0 0 0
BITMAP
ENDCHAR
STARTCHAR 201E
ENCODING 8222
SWIDTH 458 0
DWIDTH 7 0
BBX 0 0 0 0
BITMAP
ENDCHAR
STARTCHAR 2020
ENCODING 8224
SWIDTH 458 0
DWIDTH 7 0
BBX 0 0 0 0
BITMAP
ENDCHAR
STARTCHAR 2021
ENCODING 8225
SWIDTH 458 0
DWIDTH 7 0
BBX 0 0 0 0
BITMAP
ENDCHAR
STARTCHAR 2022
ENCODING 8226
SWIDTH 523 0
DWIDTH 8 0
BBX 0 0 0 0
BITMAP
ENDCHAR
STARTCHAR 2026
ENCODING 8230
SWIDTH 981 0
DWIDTH 15 0
BBX 0 0 0 0
BITMAP
ENDCHAR
STARTCHAR 2039
ENCODING 8249
SWIDTH 327 0
DWIDTH 5 0
BBX 0 0 0 0
BITMAP
ENDCHAR
STARTCHAR 203A
ENCODING 8250
SWIDTH 327 0
DWIDTH 5 0
BBX 0 0 0 0
BITMAP
ENDCHAR
STARTCHAR 2044
ENCODING 8260
SWIDTH 196 0
DWIDTH 3 0
BBX 0 0 0 0
BITMAP
ENDCHAR
STARTCHAR 20A3
ENCODING 8355
SWIDTH 458 0
DWIDTH 7 0
BBX 0 0 0 0
BITMAP
ENDCHAR
STARTCHAR 20A4
ENCODING 8356
SWIDTH 458 0
DWIDTH 7 0
BBX 0 0 0 0
BITMAP
ENDCHAR
STARTCHAR 20A7
ENCODING 8359
SWIDTH 981 0
DWIDTH 15 0
BBX 0 0 0 0
BITMAP
ENDCHAR
STARTCHAR 20AC
ENCODING 8364
SWIDTH 458 0
DWIDTH 7 0
BBX 0 0 0 0
BITMAP
ENDCHAR
STARTCHAR 2116
ENCODING 8470
SWIDTH 1112 0
DWIDTH 17 0
BBX 0 0 0 0
BITMAP
ENDCHAR
STARTCHAR 2122
ENCODING 8482
SWIDTH 720 0
DWIDTH 11 0
BBX 0 0 0 0
BITMAP
ENDCHAR
STARTCHAR 2202
ENCODING 8706
SWIDTH 458 0
DWIDTH 7 0
BBX 0 0 0 0
BITMAP
ENDCHAR
STARTCHAR 2206
ENCODING 8710
SWIDTH 523 0
DWIDTH 8 0
BBX 0 0 0 0
BITMAP
ENDCHAR
STARTCHAR 220F
ENCODING 8719
SWIDTH 720 0
DWIDTH 11 0
BBX 0 0 0 0
BITMAP
ENDCHAR
STARTCHAR 2211
ENCODING 8721
SWIDTH 589 0
DWIDTH 9 0
BBX 0 0 0 0
BITMAP
ENDCHAR
STARTCHAR 2212
ENCODING 8722
SWIDTH 458 0
DWIDTH 7 0
BBX 0 0 0 0
BITMAP
ENDCHAR
STARTCHAR 2215
ENCODING 8725
SWIDTH 196 0
DWIDTH 3 0
BBX 0 0 0 0
BITMAP
ENDCHAR
STARTCHAR 2219
ENCODING 8729
SWIDTH 261 0
DWIDTH 4 0
BBX 0 0 0 0
BITMAP
ENDCHAR
STARTCHAR 221A
ENCODING 8730
SWIDTH 458 0
DWIDTH 7 0
BBX 0 0 0 0
BITMAP
ENDCHAR
STARTCHAR 221E
ENCODING 8734
SWIDTH 458 0
DWIDTH 7 0
BBX 0 0 0 0
BITMAP
ENDCHAR
STARTCHAR 222B
ENCODING 8747
SWIDTH 327 0
DWIDTH 5 0
BBX 0 0 0 0
BITMAP
ENDCHAR
STARTCHAR 2248
ENCODING 8776
SWIDTH 458 0
DWIDTH 7 0
BBX 0 0 0 0
BITMAP
ENDCHAR
STARTCHAR 2264
ENCODING 8804
SWIDTH 458 0
DWIDTH 7 0
BBX 0 0 0 0
BITMAP
ENDCHAR
STARTCHAR 2265
ENCODING 8805
SWIDTH 458 0
DWIDTH 7 0
BBX 0 0 0 0
BITMAP
ENDCHAR
STARTCHAR F001
ENCODING 61441
SWIDTH 523 0
DWIDTH 8 0
BBX 0 0 0 0
BITMAP
ENDCHAR
STARTCHAR F002
ENCODING 61442
SWIDTH 523 0
DWIDTH 8 0
BBX 0 0 0 0
BITMAP
ENDCHAR
STARTCHAR FB01
ENCODING 64257
SWIDTH 523 0
DWIDTH 8 0
BBX 0 0 0 0
BITMAP
ENDCHAR
STARTCHAR FB02
ENCODING 64258
SWIDTH 523 0
DWIDTH 8 0
BBX 0 0 0 0
BITMAP
ENDCHAR
ENDFONT
